<svg width="110" height="107" viewBox="0 0 110 107" fill="none" xmlns="http://www.w3.org/2000/svg">
<g id="Group 35">
<path id="Vector" d="M105 84V95.4559C105 96.1106 104.65 96.7652 104.3 97.4198C92.4 110.84 11.2 109.53 0.35 97.4198C0 96.7652 0 96.1106 0 95.4559V84C0 84 45.5 105.603 105 84Z" fill="#C96E00"/>
<path id="Vector_2" d="M52.5 94C81.4949 94 105 89.7467 105 84.5C105 79.2533 81.4949 75 52.5 75C23.5051 75 0 79.2533 0 84.5C0 89.7467 23.5051 94 52.5 94Z" fill="url(#paint0_linear_604_18)"/>
<path id="flag" d="M85.2932 5.08898C97.0887 14.3056 106.679 8.92924 110 5.08898V37.457C106.148 42.3945 95.8135 49.307 85.2932 37.457C74.7729 25.6071 62.0476 32.5195 57 37.457V5.08898C61.5163 1.24872 73.4977 -4.12765 85.2932 5.08898Z" fill="url(#paint1_linear_604_18)"/>
<path id="Vector 45" d="M57 4H51V83H57V4Z" fill="url(#paint2_linear_604_18)"/>
</g>
<defs>
<linearGradient id="paint0_linear_604_18" x1="52.5" y1="75" x2="52.5" y2="94" gradientUnits="userSpaceOnUse">
<stop offset="0.0572917" stop-color="#6D6D6D"/>
<stop offset="0.723958" stop-color="#7D7D7D"/>
<stop offset="0.989583" stop-color="#878787"/>
</linearGradient>
<linearGradient id="paint1_linear_604_18" x1="83.5" y1="0" x2="83.5" y2="44" gradientUnits="userSpaceOnUse">
<stop stop-color="#1E996E"/>
<stop offset="1" stop-color="#18805B"/>
</linearGradient>
<linearGradient id="paint2_linear_604_18" x1="54" y1="4" x2="54" y2="83" gradientUnits="userSpaceOnUse">
<stop stop-color="#FF8C00"/>
<stop offset="0.583333" stop-color="#D07200"/>
</linearGradient>
</defs>
</svg>
