<svg id="Layer_2" data-name="Layer 2" xmlns="http://www.w3.org/2000/svg" xmlns:xlink="http://www.w3.org/1999/xlink" viewBox="0 0 94 172"><defs><style>.cls-1{fill:url(#linear-gradient);}.cls-2{fill:url(#linear-gradient-2);}.cls-3{fill:url(#linear-gradient-3);}.cls-4{fill:#b71d1d;}.cls-5{fill:url(#linear-gradient-4);}.cls-6{fill:url(#linear-gradient-5);}.cls-7{fill:url(#linear-gradient-6);}.cls-8{fill:url(#linear-gradient-7);}.cls-9{fill:#fff;}.cls-10{fill:url(#linear-gradient-8);}.cls-11{fill:url(#linear-gradient-9);}.cls-12{fill:url(#linear-gradient-10);}</style><linearGradient id="linear-gradient" x1="80.46" y1="102.28" x2="80.46" y2="154.94" gradientUnits="userSpaceOnUse"><stop offset="0" stop-color="#d54a0d"/><stop offset="1" stop-color="#b53e1e"/></linearGradient><linearGradient id="linear-gradient-2" x1="14.15" y1="53.9" x2="88.72" y2="96.95" gradientUnits="userSpaceOnUse"><stop offset="0" stop-color="#cdcdcd"/><stop offset="0.38" stop-color="#c3c4c4"/><stop offset="0.65" stop-color="#a5a6a7"/><stop offset="0.96" stop-color="#9e9fa0"/></linearGradient><linearGradient id="linear-gradient-3" x1="73.93" y1="102.28" x2="73.93" y2="154.94" xlink:href="#linear-gradient"/><linearGradient id="linear-gradient-4" x1="32.96" y1="54.58" x2="64.43" y2="72.75" gradientUnits="userSpaceOnUse"><stop offset="0.02" stop-color="#9ea39e"/><stop offset="1" stop-color="#0b5e71"/></linearGradient><linearGradient id="linear-gradient-5" x1="42.1" y1="117.55" x2="55.29" y2="117.55" xlink:href="#linear-gradient"/><linearGradient id="linear-gradient-6" x1="42.09" y1="140.17" x2="55.29" y2="140.17" xlink:href="#linear-gradient"/><linearGradient id="linear-gradient-7" x1="42.09" y1="157.16" x2="55.29" y2="157.16" xlink:href="#linear-gradient"/><linearGradient id="linear-gradient-8" x1="41.3" y1="6.87" x2="115.87" y2="49.92" xlink:href="#linear-gradient-2"/><linearGradient id="linear-gradient-9" x1="14.72" y1="101.22" x2="13.93" y2="154.24" xlink:href="#linear-gradient"/><linearGradient id="linear-gradient-10" x1="20.91" y1="101.31" x2="20.12" y2="154.33" xlink:href="#linear-gradient"/></defs><title>Rocket</title><path class="cls-1" d="M78.46,102.28s20,14,11.57,51.83a1.06,1.06,0,0,1-2,.12c-2.1-5.91-7.51-17.28-19.18-21.76L71,125.78a144.31,144.31,0,0,0,5.94-18.62Z"/><path class="cls-2" d="M48.69,2.52c1.14,1,44.21,39.17,28.21,104.64L71,125.78q-1.36,3.48-3,7.05H53.23l2.05-24.55a4,4,0,0,0-.7-2.54c-1.6-2.35-5.61-6.42-11.41,0a4.07,4.07,0,0,0-1.07,2.93L44,132.83H27.33q-1.74-3.39-3.23-6.72l-6.82-19.7c-10.56-42.64,8.51-76,21.27-92.53H58.83ZM66.86,63.67A18.17,18.17,0,1,0,48.69,81.83,18.16,18.16,0,0,0,66.86,63.67Z"/><path class="cls-3" d="M71,125.78l5.94-18.62A144.31,144.31,0,0,1,71,125.78Z"/><polygon class="cls-4" points="68 132.83 62.33 147.5 52.01 147.5 53.23 132.83 68 132.83"/><path class="cls-5" d="M48.69,45.5A18.17,18.17,0,1,1,30.53,63.67,18.16,18.16,0,0,1,48.69,45.5Zm-.58,16.77c3.77.49,3.77-6.13,0-7.46s-12.82,3.47-10,10.37c1,2.38,3,2.51,4.59,2A3.72,3.72,0,0,0,45.27,64C45.35,63,45.91,62,48.11,62.27Z"/><path class="cls-6" d="M54.58,105.74a4,4,0,0,1,.7,2.54l-2.05,24.55H44L42.1,108.62a4.07,4.07,0,0,1,1.07-2.93C49,99.32,53,103.39,54.58,105.74Z"/><polygon class="cls-7" points="53.23 132.83 52.01 147.5 45.19 147.5 44.03 132.83 53.23 132.83"/><path class="cls-8" d="M52,147.5l-1.32,15.81c-.06,1-.65,3.53-2.19,3.5-1.27,0-2-2.36-2.06-3.63L45.19,147.5Z"/><path class="cls-9" d="M48.11,54.81c3.77,1.33,3.77,7.95,0,7.46C45.91,62,45.35,63,45.27,64a3.72,3.72,0,0,1-2.54,3.2c-1.64.54-3.61.41-4.59-2C35.29,58.28,44.34,53.49,48.11,54.81Z"/><polygon class="cls-4" points="48.69 2.52 58.83 13.88 38.55 13.88 38.56 13.87 48.65 2.52 48.67 2.5 48.69 2.52"/><path class="cls-10" d="M48.65,2.52,38.56,13.87A96.33,96.33,0,0,1,48.65,2.52Z"/><polygon class="cls-4" points="44.03 132.83 45.19 147.5 31.67 147.5 27.33 132.83 44.03 132.83"/><path class="cls-11" d="M24.1,126.11l1.75,5.06c-11.56,4.77-16.7,16.27-18.65,22.22a1.06,1.06,0,0,1-2-.07c-9.3-37.65,10.32-52.09,10.32-52.09l1.8,5.18A115.83,115.83,0,0,0,24.1,126.11Z"/><path class="cls-12" d="M17.28,106.41l6.82,19.7A115.83,115.83,0,0,1,17.28,106.41Z"/></svg>